<?xml version="1.0" encoding="UTF-8" standalone="no"?>
<!DOCTYPE svg PUBLIC "-//W3C//DTD SVG 1.1//EN" "http://www.w3.org/Graphics/SVG/1.1/DTD/svg11.dtd">
<svg viewBox="400 250 4200 3500" version="1.1" xmlns="http://www.w3.org/2000/svg" xmlns:xlink="http://www.w3.org/1999/xlink" xml:space="preserve" xmlns:serif="http://www.serif.com/" style="fill-rule:evenodd;clip-rule:evenodd;stroke-linejoin:round;stroke-miterlimit:2;">
    <g transform="matrix(1,0,0,1,-387.664535,-240.773143)">
        <g transform="matrix(48.430416,0,0,48.430416,-99272.730755,-106759.313271)">
            <path d="M2098.781,2266.314C2098.007,2266.894 2097.116,2267.391 2096.108,2267.806C2094.357,2268.527 2092.072,2268.888 2089.251,2268.888C2085.847,2268.888 2083.265,2268.495 2081.506,2267.709C2079.747,2266.922 2078.357,2265.901 2077.336,2264.645C2076.315,2263.389 2075.642,2262.071 2075.318,2260.694C2074.848,2258.651 2074.613,2255.636 2074.613,2251.648L2074.613,2232.633L2081.81,2232.633L2081.81,2251.94C2081.81,2255.004 2081.899,2256.989 2082.078,2257.897C2082.386,2259.356 2083.119,2260.527 2084.278,2261.411C2085.437,2262.294 2087.022,2262.736 2089.032,2262.736C2091.075,2262.736 2092.615,2262.319 2093.652,2261.484C2094.242,2261.009 2094.698,2260.473 2095.021,2259.875C2095.266,2259.422 2095.434,2258.932 2095.524,2258.408C2095.584,2258.063 2095.636,2257.653 2095.678,2257.179C2095.787,2255.982 2095.841,2254.374 2095.841,2252.353L2095.841,2242.239C2095.901,2240.551 2096.414,2238.966 2097.379,2237.484C2098.408,2235.903 2099.891,2234.7 2101.828,2233.873C2102.216,2233.708 2102.619,2233.559 2103.038,2233.427L2103.038,2251.356C2103.038,2251.566 2103.038,2251.772 2103.037,2251.976C2103.021,2255.475 2102.867,2258.084 2102.575,2259.802C2102.537,2260.025 2102.497,2260.233 2102.455,2260.426C2102.065,2262.193 2101.348,2263.684 2100.303,2264.9C2099.859,2265.416 2099.352,2265.888 2098.781,2266.314Z" style="fill:#2B8FB9;fill-rule:nonzero;"/>
            <g transform="matrix(1,0,0,1,-14.255175,0.607898)">
                <path d="M2113.42,2249.186C2113.404,2249.172 2113.388,2249.158 2113.372,2249.143C2111.184,2247.182 2110.09,2244.791 2110.09,2241.97C2110.09,2240.155 2110.604,2238.457 2111.634,2236.876C2112.663,2235.296 2114.146,2234.092 2116.084,2233.265C2118.021,2232.438 2120.359,2232.025 2123.099,2232.025C2127.004,2232.025 2130.066,2232.772 2132.286,2234.267L2127.293,2238.975C2126.289,2238.313 2124.866,2237.982 2123.026,2237.982C2122.142,2237.982 2121.339,2238.059 2120.618,2238.213C2119.632,2238.422 2118.797,2238.775 2118.114,2239.271C2117.352,2239.822 2116.971,2240.56 2116.971,2241.484C2116.971,2242.327 2117.328,2243.048 2118.041,2243.648C2118.527,2244.056 2119.386,2244.474 2120.618,2244.901C2121.684,2245.271 2123.03,2245.647 2124.655,2246.031C2128.156,2246.858 2130.746,2247.713 2132.424,2248.596C2134.102,2249.48 2135.415,2250.688 2136.363,2252.219C2137.311,2253.751 2137.786,2255.644 2137.786,2257.897C2137.786,2259.94 2137.218,2261.853 2136.083,2263.636C2134.949,2265.419 2133.344,2266.744 2131.269,2267.611C2129.194,2268.479 2126.608,2268.912 2123.512,2268.912C2120.152,2268.912 2117.373,2268.333 2115.175,2267.175C2114.958,2267.06 2114.746,2266.94 2114.539,2266.814C2115.205,2266.486 2115.812,2266.117 2116.36,2265.707C2116.931,2265.28 2117.438,2264.808 2117.882,2264.292C2118.493,2263.582 2118.991,2262.778 2119.378,2261.88C2120.521,2262.516 2121.923,2262.833 2123.585,2262.833C2125.903,2262.833 2127.65,2262.343 2128.825,2261.362C2130,2260.381 2130.588,2259.235 2130.588,2257.921C2130.588,2257.079 2130.341,2256.361 2129.846,2255.77C2129.352,2255.178 2128.489,2254.663 2127.257,2254.225C2126.414,2253.934 2124.493,2253.415 2121.494,2252.669C2121.191,2252.594 2120.895,2252.518 2120.607,2252.44C2117.255,2251.537 2114.86,2250.452 2113.42,2249.186Z" style="fill:#2B8FB9;fill-rule:nonzero;"/>
            </g>
        </g>
        <g transform="matrix(1,0,0,1,259.1171,-523.92271)">
            <path d="M4042.017,2602.096C4042.33,2615.052 4042.488,2628.047 4042.488,2641.077C4042.488,3514.938 3333.024,4224.403 2459.163,4224.403C1980.566,4224.403 1551.281,4011.596 1260.85,3675.526C1265.956,3677.955 1271.13,3680.341 1276.371,3682.684C1361.553,3720.76 1486.578,3739.799 1651.446,3739.799C1714.075,3739.799 1771.257,3736.127 1822.995,3728.784C2009.76,3838.331 2227.183,3901.154 2459.163,3901.154C3154.618,3901.154 3719.239,3336.533 3719.239,2641.077C3719.239,2626.295 3718.984,2611.572 3718.478,2596.912L3883.861,2785.184L4042.017,2602.096Z" style="fill:#2B8FB9;"/>
        </g>
        <path d="M1443.768,1178.029C1732.217,787.38 2195.872,533.829 2718.28,533.829C3427.244,533.829 4028.001,1000.805 4229.481,1643.688C4235.768,1663.747 4241.666,1683.978 4247.166,1704.372L4534.329,1703.369L4142.681,2156.155L3747.882,1706.115L3909.488,1705.551C3738.748,1211.952 3269.63,857.078 2718.28,857.078C2294.114,857.078 1918.618,1067.113 1690.208,1388.763L1690.208,1178.029L1443.768,1178.029Z" style="fill:#2B8FB9;"/>
    </g>
</svg>
